<svg width="24" height="24" viewBox="0 0 24 24" fill="none" xmlns="http://www.w3.org/2000/svg">
    <path d="M3.56494 19.3553C3.56497 20.0044 3.68325 20.4283 3.85986 20.6786L12.9634 11.9989L3.84717 3.30164C3.68145 3.55527 3.56494 3.99104 3.56494 4.64539V19.3553Z" fill="white"/>
    <path d="M4.27173 20.979C4.38564 21.0051 4.51899 21.0055 4.67212 20.979C4.95802 20.9295 5.2702 20.795 5.54907 20.6411L15.8508 14.9399L13.3254 12.3579L4.27173 20.979Z" fill="white"/>
    <path d="M4.61133 3.00786C4.50108 2.9963 4.39058 3.00327 4.28418 3.02837L13.3184 11.6485L15.8506 9.05962L5.5293 3.35845L5.52637 3.35747C5.24079 3.19526 4.93222 3.0776 4.61133 3.00786Z" fill="white"/>
    <path d="M13.6814 11.9922L16.3044 14.6689L19.6384 12.8262L19.8455 12.7041C20.0351 12.5831 20.1759 12.4657 20.2732 12.3555C20.4013 12.2103 20.444 12.0894 20.4441 11.9902C20.4441 11.891 20.4016 11.7694 20.2732 11.624C20.1434 11.477 19.9359 11.3182 19.6384 11.1533L16.3054 9.30957L13.6814 11.9922Z" fill="white"/>
</svg>